<?xml version="1.0" encoding="UTF-8" standalone="no"?>
<!DOCTYPE svg PUBLIC "-//W3C//DTD SVG 20010904//EN"
        "http://www.w3.org/TR/2001/REC-SVG-20010904/DTD/svg10.dtd">

<svg xmlns="http://www.w3.org/2000/svg"
     width="508.026mm" height="317.516mm"
     viewBox="0 0 2880 1800">
    <path id="Selection #3"
          fill="black" stroke="black" stroke-width="1"
          d="M 2600.00,552.00
           C 2600.00,552.00 2619.00,553.00 2619.00,553.00
             2619.00,553.00 2600.00,552.00 2600.00,552.00 Z
           M 1211.00,739.00
           C 1211.00,739.00 1185.33,701.00 1185.33,701.00
             1185.33,701.00 1144.33,640.00 1144.33,640.00
             1144.33,640.00 1130.33,619.00 1130.33,619.00
             1130.33,619.00 1122.68,609.02 1122.68,609.02
             1122.68,609.02 1115.00,608.00 1115.00,608.00
             1115.00,608.00 1021.00,608.00 1021.00,608.00
             1022.44,615.12 1027.45,621.00 1031.31,627.00
             1031.31,627.00 1053.00,661.00 1053.00,661.00
             1053.00,661.00 1123.42,771.00 1123.42,771.00
             1123.42,771.00 1147.69,809.00 1147.69,809.00
             1149.81,812.29 1156.05,820.29 1155.66,824.00
             1155.37,826.84 1147.99,837.01 1146.00,840.00
             1146.00,840.00 1123.00,875.00 1123.00,875.00
             1123.00,875.00 1038.00,1003.00 1038.00,1003.00
             1038.00,1003.00 1014.33,1039.00 1014.33,1039.00
             1005.36,1052.47 1006.55,1052.98 997.00,1053.00
             997.00,1053.00 212.00,1053.00 212.00,1053.00
             212.00,1053.00 212.00,1136.00 212.00,1136.00
             224.56,1134.34 237.34,1135.00 250.00,1135.00
             250.00,1135.00 309.00,1135.00 309.00,1135.00
             309.00,1135.00 491.00,1135.00 491.00,1135.00
             491.00,1135.00 1056.00,1135.00 1056.00,1135.00
             1057.91,1135.00 1061.09,1135.12 1062.82,1134.40
             1066.56,1132.83 1071.36,1123.61 1073.69,1120.00
             1073.69,1120.00 1098.00,1083.00 1098.00,1083.00
             1098.00,1083.00 1176.05,963.00 1176.05,963.00
             1176.05,963.00 1210.00,910.00 1210.00,910.00
             1210.00,910.00 1236.67,950.00 1236.67,950.00
             1236.67,950.00 1297.33,1042.00 1297.33,1042.00
             1297.33,1042.00 1316.33,1071.00 1316.33,1071.00
             1324.71,1083.58 1323.64,1083.98 1333.00,1084.00
             1333.00,1084.00 1434.00,1084.00 1434.00,1084.00
             1432.71,1077.66 1426.07,1068.63 1422.33,1063.00
             1422.33,1063.00 1398.05,1026.00 1398.05,1026.00
             1398.05,1026.00 1352.34,956.00 1352.34,956.00
             1352.34,956.00 1309.33,890.00 1309.33,890.00
             1309.33,890.00 1277.33,841.00 1277.33,841.00
             1274.77,837.15 1266.51,826.27 1267.50,822.00
             1268.06,819.58 1273.54,811.67 1275.19,809.00
             1275.19,809.00 1293.58,780.00 1293.58,780.00
             1293.58,780.00 1355.66,682.00 1355.66,682.00
             1355.66,682.00 1372.69,655.00 1372.69,655.00
             1380.22,643.29 1379.10,642.02 1389.00,642.00
             1389.00,642.00 2658.00,642.00 2658.00,642.00
             2658.00,642.00 2658.00,560.00 2658.00,560.00
             2658.00,560.00 1338.00,560.00 1338.00,560.00
             1328.65,560.02 1329.75,560.37 1321.33,573.00
             1321.33,573.00 1302.00,602.00 1302.00,602.00
             1302.00,602.00 1241.00,693.00 1241.00,693.00
             1241.00,693.00 1211.00,739.00 1211.00,739.00 Z
           M 1472.00,722.22
           C 1472.00,722.22 1451.00,725.50 1451.00,725.50
             1427.22,730.95 1404.90,742.65 1386.96,759.18
             1365.36,779.09 1350.42,809.18 1345.59,838.00
             1344.79,842.76 1344.06,846.10 1344.00,851.00
             1343.71,876.07 1343.74,892.03 1353.45,916.00
             1361.99,937.08 1377.45,956.68 1395.09,970.87
             1427.78,997.19 1468.20,1004.70 1509.00,998.83
             1527.28,996.20 1548.21,987.33 1563.00,976.37
             1586.35,959.06 1603.56,938.49 1613.56,911.00
             1616.46,903.04 1620.03,888.41 1620.96,880.00
             1620.96,880.00 1620.96,872.00 1620.96,872.00
             1620.96,872.00 1622.00,859.00 1622.00,859.00
             1622.00,859.00 1621.09,849.00 1621.09,849.00
             1617.48,797.35 1585.32,752.12 1537.00,732.60
             1523.34,727.09 1499.72,722.18 1485.00,722.22
             1485.00,722.22 1472.00,722.22 1472.00,722.22 Z
           M 1944.00,722.23
           C 1930.19,725.40 1922.84,725.90 1909.00,731.45
             1872.37,746.14 1844.95,775.12 1831.23,812.00
             1820.36,841.20 1819.97,880.67 1830.44,910.00
             1841.76,941.74 1868.74,971.62 1899.00,986.37
             1909.91,991.69 1920.19,994.85 1932.00,997.28
             1938.90,998.70 1945.92,999.91 1953.00,1000.00
             1980.97,1000.32 2002.78,998.36 2028.00,984.69
             2053.60,970.81 2075.49,948.34 2088.06,922.00
             2093.22,911.18 2096.31,899.74 2098.42,888.00
             2107.80,836.01 2091.62,786.03 2050.09,752.24
             2038.43,742.75 2025.24,735.13 2011.00,730.27
             1999.13,726.22 1981.47,722.02 1969.00,722.23
             1969.00,722.23 1944.00,722.23 1944.00,722.23 Z
           M 2297.00,942.00
           C 2299.03,948.42 2304.63,956.43 2308.58,962.00
             2323.43,982.94 2345.26,999.68 2372.00,1000.00
             2386.34,1000.16 2397.65,999.78 2411.00,993.51
             2435.37,982.07 2453.69,957.43 2454.00,930.00
             2454.19,912.76 2447.85,896.93 2437.96,883.00
             2424.61,864.19 2400.53,847.27 2382.00,833.37
             2370.39,824.67 2359.71,817.66 2351.17,805.58
             2346.05,798.33 2342.84,787.86 2344.32,779.00
             2347.04,762.77 2364.07,751.48 2380.00,752.51
             2394.41,753.45 2402.03,758.97 2412.00,769.00
             2414.72,771.74 2423.32,782.61 2426.09,783.18
             2428.57,783.69 2431.11,781.70 2433.00,780.36
             2437.07,777.46 2450.18,769.78 2447.96,763.99
             2446.58,760.40 2436.00,748.84 2432.88,745.66
             2425.97,738.62 2418.08,732.23 2409.00,728.17
             2380.98,715.63 2343.16,721.65 2324.90,748.00
             2319.96,755.13 2316.36,763.45 2314.92,772.00
             2313.74,778.97 2313.29,783.94 2314.05,791.00
             2315.50,804.50 2319.30,814.98 2327.49,825.99
             2333.98,834.71 2347.33,845.67 2356.00,852.42
             2374.18,866.60 2401.10,886.29 2413.64,905.00
             2418.23,911.84 2421.52,919.67 2421.90,928.00
             2422.94,950.94 2399.97,970.74 2378.00,971.00
             2378.00,971.00 2374.00,971.00 2374.00,971.00
             2358.03,970.81 2344.02,959.07 2334.68,947.00
             2334.68,947.00 2326.05,934.00 2326.05,934.00
             2324.80,932.12 2323.36,929.38 2320.90,928.99
             2318.44,928.60 2315.01,931.06 2313.00,932.32
             2313.00,932.32 2297.00,942.00 2297.00,942.00 Z
           M 2255.00,965.00
           C 2255.00,965.00 2164.00,965.00 2164.00,965.00
             2156.78,964.99 2154.15,965.15 2154.00,957.00
             2154.00,957.00 2154.00,912.00 2154.00,912.00
             2154.00,912.00 2154.00,737.00 2154.00,737.00
             2153.99,730.26 2154.49,728.14 2147.00,728.00
             2147.00,728.00 2133.00,728.00 2133.00,728.00
             2123.80,728.06 2125.00,729.14 2125.00,744.00
             2125.00,744.00 2125.00,790.00 2125.00,790.00
             2125.00,790.00 2125.00,985.00 2125.00,985.00
             2125.00,987.30 2124.62,991.41 2126.60,992.98
             2128.45,994.44 2135.46,994.00 2138.00,994.00
             2138.00,994.00 2168.00,994.00 2168.00,994.00
             2168.00,994.00 2246.00,994.00 2246.00,994.00
             2247.99,994.00 2251.81,994.23 2253.40,992.98
             2255.10,991.63 2254.96,988.95 2255.00,987.00
             2255.00,987.00 2255.00,965.00 2255.00,965.00 Z
           M 2265.60,729.02
           C 2262.86,732.85 2264.00,743.04 2264.00,748.00
             2264.00,748.00 2264.00,797.00 2264.00,797.00
             2264.00,797.00 2264.00,985.00 2264.00,985.00
             2264.01,991.74 2263.51,993.86 2271.00,994.00
             2271.00,994.00 2285.00,994.00 2285.00,994.00
             2294.20,993.94 2293.00,992.86 2293.00,978.00
             2293.00,978.00 2293.00,932.00 2293.00,932.00
             2293.00,932.00 2293.00,737.00 2293.00,737.00
             2293.00,734.70 2293.38,730.59 2291.40,729.02
             2289.92,727.85 2286.82,728.01 2285.00,728.00
             2279.94,727.97 2269.89,727.19 2265.60,729.02 Z
           M 265.00,994.00
           C 265.00,994.00 294.00,994.00 294.00,994.00
             294.00,994.00 294.00,946.00 294.00,946.00
             294.00,946.00 294.00,884.00 294.00,884.00
             294.01,878.71 293.27,873.61 300.02,873.06
             308.57,872.36 310.54,877.89 315.13,884.00
             315.13,884.00 339.12,915.00 339.12,915.00
             339.12,915.00 385.40,975.00 385.40,975.00
             388.48,978.86 397.35,991.92 401.09,993.40
             402.90,994.12 406.02,994.00 408.00,994.00
             408.00,994.00 435.00,994.00 435.00,994.00
             433.73,987.99 430.25,984.82 426.63,980.00
             426.63,980.00 408.08,956.00 408.08,956.00
             408.08,956.00 394.35,938.00 394.35,938.00
             394.35,938.00 368.12,904.00 368.12,904.00
             362.85,897.10 348.31,879.41 345.00,873.00
             366.50,872.01 392.19,868.06 409.00,853.70
             440.51,826.79 439.22,772.69 407.58,746.43
             393.03,734.35 373.48,730.22 355.00,730.00
             355.00,730.00 333.00,729.00 333.00,729.00
             333.00,729.00 274.00,729.00 274.00,729.00
             265.36,729.02 265.02,729.36 265.00,738.00
             265.00,738.00 265.00,791.00 265.00,791.00
             265.00,791.00 265.00,994.00 265.00,994.00 Z
           M 470.00,729.00
           C 470.00,729.00 470.00,750.00 470.00,750.00
             470.00,750.00 469.21,779.00 469.21,779.00
             469.21,779.00 469.21,985.00 469.21,985.00
             469.21,985.00 470.60,992.98 470.60,992.98
             470.60,992.98 478.00,994.00 478.00,994.00
             478.00,994.00 504.00,994.00 504.00,994.00
             504.00,994.00 621.00,994.00 621.00,994.00
             621.00,994.00 621.00,974.00 621.00,974.00
             621.00,974.00 619.98,966.60 619.98,966.60
             619.98,966.60 614.00,965.00 614.00,965.00
             614.00,965.00 592.00,965.00 592.00,965.00
             592.00,965.00 499.00,965.00 499.00,965.00
             499.00,965.00 499.00,866.00 499.00,866.00
             499.00,866.00 519.00,865.04 519.00,865.04
             519.00,865.04 526.00,865.66 526.00,865.66
             526.00,865.66 533.00,865.06 533.00,865.06
             533.00,865.06 546.00,865.06 546.00,865.06
             546.00,865.06 556.00,865.99 556.00,865.99
             556.00,865.99 575.00,865.19 575.00,865.19
             575.00,865.19 583.00,865.19 583.00,865.19
             583.00,865.19 621.00,865.19 621.00,865.19
             621.00,865.19 621.00,845.00 621.00,845.00
             621.00,845.00 619.98,837.60 619.98,837.60
             619.98,837.60 614.00,836.00 614.00,836.00
             614.00,836.00 592.00,836.00 592.00,836.00
             592.00,836.00 499.00,836.00 499.00,836.00
             499.00,836.00 499.00,768.00 499.00,768.00
             499.01,765.46 498.68,761.52 500.60,759.60
             502.23,757.96 504.86,758.04 507.00,758.00
             507.00,758.00 526.00,758.00 526.00,758.00
             526.00,758.00 613.00,758.00 613.00,758.00
             614.99,758.00 618.81,758.23 620.40,756.98
             622.93,754.98 622.01,741.57 622.00,738.00
             622.00,735.70 622.38,731.59 620.40,730.02
             618.81,728.77 614.99,729.00 613.00,729.00
             613.00,729.00 587.00,729.00 587.00,729.00
             587.00,729.00 470.00,729.00 470.00,729.00 Z
           M 638.00,994.00
           C 638.00,994.00 658.00,994.00 658.00,994.00
             658.00,994.00 665.98,992.40 665.98,992.40
             665.98,992.40 668.39,982.00 668.39,982.00
             668.39,982.00 670.17,966.00 670.17,966.00
             670.17,966.00 672.28,952.00 672.28,952.00
             672.28,952.00 679.28,897.00 679.28,897.00
             679.28,897.00 683.85,865.00 683.85,865.00
             683.85,865.00 691.00,813.00 691.00,813.00
             691.00,813.00 693.00,813.00 693.00,813.00
             693.00,813.00 714.74,858.00 714.74,858.00
             714.74,858.00 748.26,926.00 748.26,926.00
             748.26,926.00 763.14,956.00 763.14,956.00
             763.14,956.00 780.40,990.85 780.40,990.85
             782.52,993.99 788.13,995.26 791.37,993.01
             793.42,991.57 796.77,983.65 798.09,981.00
             798.09,981.00 813.26,950.00 813.26,950.00
             813.26,950.00 859.75,856.00 859.75,856.00
             859.75,856.00 873.59,828.00 873.59,828.00
             876.03,823.11 877.94,817.75 882.00,814.00
             882.00,814.00 890.28,874.00 890.28,874.00
             890.28,874.00 893.00,892.00 893.00,892.00
             893.00,892.00 898.71,932.00 898.71,932.00
             898.71,932.00 904.00,971.00 904.00,971.00
             907.01,986.75 903.53,993.80 914.00,994.00
             914.00,994.00 927.00,994.00 927.00,994.00
             929.19,994.00 933.52,994.37 934.94,992.40
             936.41,990.36 934.48,983.66 934.15,981.00
             934.15,981.00 929.87,950.00 929.87,950.00
             929.87,950.00 915.72,851.00 915.72,851.00
             915.72,851.00 909.05,805.00 909.05,805.00
             909.05,805.00 907.28,794.00 907.28,794.00
             907.28,794.00 902.87,761.00 902.87,761.00
             902.87,761.00 900.98,749.00 900.98,749.00
             900.72,745.28 899.30,730.99 895.70,729.66
             890.59,727.76 887.56,736.68 885.92,740.00
             885.92,740.00 867.25,778.00 867.25,778.00
             867.25,778.00 811.25,892.00 811.25,892.00
             811.25,892.00 795.41,924.00 795.41,924.00
             792.65,929.51 790.45,935.65 786.00,940.00
             786.00,940.00 757.25,881.00 757.25,881.00
             757.25,881.00 707.59,780.00 707.59,780.00
             707.59,780.00 688.75,742.00 688.75,742.00
             686.96,738.41 684.01,730.29 679.90,729.33
             672.93,727.70 672.64,737.39 672.00,742.00
             672.00,742.00 665.42,790.00 665.42,790.00
             665.42,790.00 646.72,927.00 646.72,927.00
             646.72,927.00 638.00,994.00 638.00,994.00 Z
           M 994.00,994.00
           C 994.00,994.00 994.00,890.00 994.00,890.00
             994.00,890.00 994.00,820.00 994.00,820.00
             994.00,820.00 994.00,738.00 994.00,738.00
             993.99,731.26 994.49,729.14 987.00,729.00
             987.00,729.00 973.00,729.00 973.00,729.00
             971.06,729.00 967.28,728.75 965.74,729.99
             963.65,731.68 963.98,736.52 964.00,739.00
             964.00,739.00 964.96,749.00 964.96,749.00
             964.96,749.00 964.96,765.00 964.96,765.00
             964.96,765.00 964.03,777.00 964.03,777.00
             964.03,777.00 964.03,793.00 964.03,793.00
             964.03,793.00 964.03,985.00 964.03,985.00
             964.00,987.30 963.62,991.41 965.60,992.98
             967.08,994.15 970.18,993.99 972.00,994.00
             972.00,994.00 994.00,994.00 994.00,994.00 Z
           M 1652.00,729.00
           C 1652.00,729.00 1652.00,994.00 1652.00,994.00
             1652.00,994.00 1681.00,994.00 1681.00,994.00
             1681.00,994.00 1681.00,873.00 1681.00,873.00
             1681.00,873.00 1711.00,873.00 1711.00,873.00
             1711.00,873.00 1739.00,871.09 1739.00,871.09
             1756.57,869.89 1771.31,869.09 1787.00,859.54
             1795.33,854.46 1803.08,847.31 1808.25,839.00
             1813.78,830.11 1817.87,816.49 1818.00,806.00
             1818.00,806.00 1818.00,796.00 1818.00,796.00
             1817.90,775.44 1807.04,755.03 1790.00,743.52
             1776.19,734.19 1759.56,730.20 1743.00,730.00
             1743.00,730.00 1722.00,729.00 1722.00,729.00
             1722.00,729.00 1652.00,729.00 1652.00,729.00 Z
           M 1476.00,751.28
           C 1488.22,750.15 1507.48,753.51 1519.00,757.81
             1551.22,769.83 1574.66,792.16 1585.92,825.00
             1589.25,834.71 1590.58,844.80 1591.04,855.00
             1591.04,855.00 1591.66,862.00 1591.66,862.00
             1591.66,877.16 1587.92,895.18 1581.69,909.00
             1566.98,941.62 1534.75,966.31 1499.00,970.71
             1479.05,973.17 1457.61,971.52 1439.00,963.43
             1428.69,958.95 1417.34,951.34 1409.00,943.83
             1383.14,920.56 1373.95,892.87 1374.00,859.00
             1374.02,847.03 1377.02,831.12 1381.45,820.00
             1388.44,802.44 1399.88,787.32 1414.42,775.30
             1425.80,765.89 1443.60,757.44 1458.00,754.04
             1458.00,754.04 1476.00,751.28 1476.00,751.28 Z
           M 1950.00,751.29
           C 1987.72,747.71 2027.22,764.22 2049.81,795.09
             2084.30,842.23 2075.53,915.77 2027.00,950.23
             2010.87,961.68 1987.97,970.97 1968.00,971.00
             1968.00,971.00 1952.00,971.00 1952.00,971.00
             1944.32,970.91 1932.35,967.96 1925.00,965.49
             1909.74,960.36 1896.35,951.32 1885.00,940.00
             1854.35,909.44 1845.09,864.78 1859.08,824.00
             1869.87,792.54 1894.75,767.95 1926.00,756.80
             1933.72,754.04 1941.94,752.62 1950.00,751.29 Z
           M 296.43,758.57
           C 301.14,757.42 316.21,758.00 322.00,758.00
             322.00,758.00 355.00,759.00 355.00,759.00
             355.00,759.00 363.00,759.00 363.00,759.00
             372.28,760.10 382.09,763.76 388.96,770.17
             406.65,786.68 405.02,818.59 386.00,833.32
             375.92,841.12 357.58,843.98 345.00,844.00
             345.00,844.00 304.00,844.00 304.00,844.00
             295.76,843.98 294.06,843.74 294.00,835.00
             294.00,835.00 294.00,780.00 294.00,780.00
             294.00,776.46 293.54,762.66 294.74,760.29
             295.51,758.77 295.71,759.19 296.43,758.57 Z
           M 1683.31,758.60
           C 1688.15,757.43 1702.20,758.00 1708.00,758.00
             1708.00,758.00 1732.00,758.00 1732.00,758.00
             1732.00,758.00 1742.00,758.91 1742.00,758.91
             1754.02,759.73 1764.45,760.27 1773.99,769.10
             1792.67,786.41 1792.65,818.19 1771.91,833.92
             1762.05,841.40 1745.18,843.98 1733.00,844.00
             1733.00,844.00 1691.00,844.00 1691.00,844.00
             1682.18,843.99 1681.05,843.97 1681.00,836.00
             1681.00,836.00 1681.00,780.00 1681.00,780.00
             1681.00,776.71 1680.59,762.37 1681.60,760.31
             1682.34,758.80 1682.56,759.24 1683.31,758.60 Z"/>
</svg>
